# xmcd
#
# Track frame offsets:
#	150
#	20208
#	39538
#	62923
#	85922
#	114203
#	130417
#	150992
#	169260
#	186968
#	203985
#	216823
#	233264
#	258883
#	280215
#	300765
#	316635
#
# Disc length: 4518
#
# Revision: 1
# Processed by: cddbd v1.5.2PL0 Copyright (c) Steve Scherf et al.
# Submitted via: Broken X Disk Manager 4.02.2262
#
DISCID=db11a411
DTITLE=Алла Пугачева - Алла в Рождественских встречах 1
DYEAR=2002
DGENRE=Rhythmic Soul
TTITLE0=Ìîíîëîã
TTITLE1=Ïòèöà ïåâ÷àÿ
TTITLE2=Ñáåðåãè òåáÿ ñóäüáà
TTITLE3=Â ðîäíîì êðàþ
TTITLE4=Áîêàë
TTITLE5=Ñòî äðóçåé
TTITLE6=Ðàäóéñÿ
TTITLE7=Ôîòîãðàô
TTITLE8=Ãîëóáü ñèçîêðûëûé
TTITLE9=ß òåáÿ òàê ñèëüíî ëþáèëà
TTITLE10=ß òåáÿ ïîöåëîâàëà
TTITLE11=Êîðàëëîâûå áóñû
TTITLE12=Òðè ñ÷àñòëèâûõ äíÿ
TTITLE13=Ìîëîäîé ÷åëîâåê, ïðèãëàñèòå òàíöåâàòü
TTITLE14=Ñïàñèáî
TTITLE15=Ìîÿ ñóäüáà
TTITLE16=Àííà Êàðåíèíà
EXTD=YEAR: 2002
EXTT0=
EXTT1=
EXTT2=
EXTT3=
EXTT4=
EXTT5=
EXTT6=
EXTT7=
EXTT8=
EXTT9=
EXTT10=
EXTT11=
EXTT12=
EXTT13=
EXTT14=
EXTT15=
EXTT16=
PLAYORDER=
